<svg width="20" height="20" viewBox="0 0 20 20" fill="none" xmlns="http://www.w3.org/2000/svg">
<rect width="20" height="20" rx="10" fill="#111B55"/>
<path d="M14.1292 6.59167L10.0272 4.13447C9.87935 4.04636 9.71186 4 9.54141 4C9.37095 4 9.20347 4.04636 9.05565 4.13447L4.95366 6.59346C4.80646 6.68194 4.68415 6.8089 4.5989 6.96169C4.51366 7.11449 4.46845 7.28779 4.46777 7.46435V12.3823C4.468 12.5594 4.51299 12.7332 4.59826 12.8866C4.68352 13.0399 4.80608 13.1673 4.95366 13.256L9.05565 15.715C9.20347 15.8031 9.37095 15.8495 9.54141 15.8495C9.71186 15.8495 9.87935 15.8031 10.0272 15.715L14.1292 13.256C14.2767 13.1673 14.3993 13.0399 14.4846 12.8866C14.5698 12.7332 14.6148 12.5594 14.615 12.3823V7.46435C14.6147 7.28748 14.5696 7.11381 14.4843 6.96068C14.3991 6.80754 14.2766 6.6803 14.1292 6.59167ZM9.29846 4.56992C9.37239 4.52585 9.45616 4.50267 9.54141 4.50267C9.62666 4.50267 9.71042 4.52585 9.78435 4.56992L13.8863 7.02891C13.9331 7.05745 13.9748 7.094 14.0097 7.137L12.0899 9.90874C12.0854 9.25243 11.8465 8.62119 11.4193 8.13728C10.9921 7.65338 10.4072 7.35125 9.77768 7.28941L5.34626 6.93772L9.29846 4.56992ZM7.47708 9.92334C7.47704 9.49949 7.59808 9.08515 7.8249 8.73271C8.05173 8.38027 8.37415 8.10557 8.75139 7.94335C9.12862 7.78112 9.54374 7.73866 9.94422 7.82134C10.3447 7.90402 10.7126 8.10811 11.0013 8.40782C11.29 8.70753 11.4867 9.08938 11.5663 9.50509C11.646 9.92079 11.6051 10.3517 11.4488 10.7433C11.2925 11.1348 11.0279 11.4695 10.6883 11.7049C10.3488 11.9404 9.94961 12.066 9.54128 12.066C8.99402 12.0653 8.46937 11.8393 8.0824 11.4377C7.69543 11.036 7.47774 10.4914 7.47708 9.92334ZM5.19647 12.8178C5.12263 12.7734 5.0613 12.7097 5.01864 12.633C4.97598 12.5563 4.95349 12.4693 4.95341 12.3808V7.46435C4.95369 7.44722 4.95484 7.43012 4.95686 7.41312L8.21121 7.66927C7.6598 8.01733 7.25677 8.5703 7.08405 9.21576C6.91134 9.86122 6.9819 10.5507 7.2814 11.1441H7.27943L9.10895 15.1617L5.19647 12.8178ZM13.8863 12.8178L9.78435 15.2768C9.7616 15.2901 9.73783 15.3015 9.71328 15.3108L8.31683 12.244C8.87922 12.5643 9.53739 12.6524 10.1597 12.4906C10.7819 12.3288 11.3224 11.929 11.6728 11.3713H11.6743L14.1289 7.82782V12.3823C14.1285 12.4706 14.106 12.5572 14.0634 12.6335C14.0209 12.7099 13.9598 12.7734 13.8863 12.8178Z" fill="white"/>
<path d="M10.8573 13.3449C10.8932 13.0042 11.027 12.68 11.2448 12.4174C11.4983 12.1119 11.8498 11.9094 12.2374 11.8515C12.6253 11.7937 13.0184 11.8854 13.3449 12.1071C13.5978 12.2788 13.7969 12.5189 13.9243 12.7978C13.9416 12.797 13.9589 12.7965 13.9762 12.7965L13.9777 12.7964C14.3342 12.7965 14.6722 12.9466 14.9187 13.2078C15.1645 13.4683 15.2998 13.8181 15.2998 14.1795C15.2998 14.5409 15.1645 14.8907 14.9187 15.1512C14.6722 15.4124 14.3342 15.5626 13.9777 15.5626H10.9452C10.8028 15.5626 10.6622 15.5328 10.5316 15.4753C10.4011 15.418 10.2838 15.3344 10.1858 15.2303M10.8573 13.3449L10.1858 15.2303C10.1858 15.2303 10.1858 15.2303 10.1858 15.2303M10.8573 13.3449C10.7468 13.3545 10.6384 13.382 10.5361 13.4264C10.4052 13.4832 10.2872 13.5664 10.1887 13.6703C10.0902 13.7742 10.0129 13.8967 9.96042 14.0304C9.90801 14.164 9.8812 14.3067 9.88115 14.4504M10.8573 13.3449L10.1858 15.2303M10.1858 15.2303C10.0878 15.1262 10.0111 15.0036 9.95913 14.87C9.90722 14.7365 9.88085 14.5939 9.88115 14.4504M9.88115 14.4504C9.88115 14.4506 9.88115 14.4507 9.88115 14.4508L10.1812 14.4508L9.88116 14.4501C9.88116 14.4502 9.88116 14.4503 9.88115 14.4504Z" fill="white" stroke="#111B55" stroke-width="0.6"/>
</svg>
