<svg width="232" height="40" viewBox="0 0 232 40" fill="none" xmlns="http://www.w3.org/2000/svg">
<rect x="0.5" y="0.5" width="231" height="39" rx="19.5" fill="white"/>
<path d="M43.1157 27.324C42.2397 27.324 41.4357 27.18 40.7037 26.892C39.9837 26.592 39.3597 26.16 38.8317 25.596C38.3157 25.02 37.9137 24.312 37.6257 23.472C37.3377 22.632 37.1937 21.672 37.1937 20.592C37.1937 19.512 37.3377 18.552 37.6257 17.712C37.9257 16.872 38.3337 16.164 38.8497 15.588C39.3777 15.012 40.0017 14.574 40.7217 14.274C41.4537 13.974 42.2517 13.824 43.1157 13.824C43.9917 13.824 44.7897 13.974 45.5097 14.274C46.2417 14.562 46.8657 14.994 47.3817 15.57C47.8977 16.134 48.2997 16.836 48.5877 17.676C48.8757 18.504 49.0197 19.458 49.0197 20.538C49.0197 21.618 48.8757 22.584 48.5877 23.436C48.3117 24.276 47.9157 24.984 47.3997 25.56C46.8837 26.136 46.2597 26.574 45.5277 26.874C44.8077 27.174 44.0037 27.324 43.1157 27.324ZM43.1157 25.884C43.7997 25.884 44.3997 25.758 44.9157 25.506C45.4437 25.254 45.8817 24.9 46.2297 24.444C46.5777 23.976 46.8417 23.418 47.0217 22.77C47.2017 22.11 47.2917 21.378 47.2917 20.574C47.2917 19.782 47.2017 19.062 47.0217 18.414C46.8417 17.754 46.5717 17.19 46.2117 16.722C45.8637 16.254 45.4317 15.894 44.9157 15.642C44.3997 15.39 43.7997 15.264 43.1157 15.264C42.4197 15.264 41.8077 15.39 41.2797 15.642C40.7637 15.894 40.3257 16.254 39.9657 16.722C39.6177 17.19 39.3537 17.754 39.1737 18.414C39.0057 19.062 38.9217 19.782 38.9217 20.574C38.9217 21.378 39.0057 22.11 39.1737 22.77C39.3537 23.418 39.6177 23.976 39.9657 24.444C40.3137 24.9 40.7457 25.254 41.2617 25.506C41.7897 25.758 42.4077 25.884 43.1157 25.884ZM51.1914 17.694H52.7394V19.026C53.1234 18.498 53.5674 18.096 54.0714 17.82C54.5874 17.544 55.1874 17.406 55.8714 17.406C56.5314 17.406 57.1074 17.526 57.5994 17.766C58.1034 18.006 58.5174 18.342 58.8414 18.774C59.1774 19.206 59.4234 19.722 59.5794 20.322C59.7474 20.91 59.8314 21.564 59.8314 22.284C59.8314 23.052 59.7354 23.748 59.5434 24.372C59.3514 24.984 59.0754 25.506 58.7154 25.938C58.3554 26.37 57.9174 26.706 57.4014 26.946C56.8974 27.174 56.3274 27.288 55.6914 27.288C55.1634 27.288 54.6414 27.186 54.1254 26.982C53.6214 26.766 53.1654 26.388 52.7574 25.848V30.492H51.1914V17.694ZM52.7394 22.608C52.7394 23.208 52.8054 23.724 52.9374 24.156C53.0814 24.576 53.2734 24.924 53.5134 25.2C53.7534 25.476 54.0414 25.68 54.3774 25.812C54.7134 25.932 55.0794 25.992 55.4754 25.992C55.8594 25.992 56.2134 25.926 56.5374 25.794C56.8734 25.662 57.1614 25.452 57.4014 25.164C57.6414 24.864 57.8274 24.48 57.9594 24.012C58.1034 23.544 58.1754 22.974 58.1754 22.302C58.1754 21.618 58.0974 21.048 57.9414 20.592C57.7974 20.124 57.6054 19.752 57.3654 19.476C57.1254 19.2 56.8494 19.002 56.5374 18.882C56.2374 18.762 55.9254 18.702 55.6014 18.702C55.1934 18.702 54.8154 18.774 54.4674 18.918C54.1194 19.05 53.8134 19.254 53.5494 19.53C53.2974 19.794 53.0994 20.136 52.9554 20.556C52.8114 20.964 52.7394 21.438 52.7394 21.978V22.608ZM69.9776 24.39C69.8216 25.29 69.4196 25.998 68.7716 26.514C68.1356 27.03 67.2176 27.288 66.0176 27.288C64.6016 27.288 63.5156 26.862 62.7596 26.01C62.0036 25.146 61.6256 23.946 61.6256 22.41C61.6256 21.606 61.7336 20.892 61.9496 20.268C62.1656 19.644 62.4656 19.122 62.8496 18.702C63.2456 18.282 63.7136 17.964 64.2536 17.748C64.7936 17.52 65.3816 17.406 66.0176 17.406C66.7376 17.406 67.3556 17.52 67.8716 17.748C68.3876 17.976 68.8076 18.294 69.1316 18.702C69.4676 19.098 69.7136 19.572 69.8696 20.124C70.0376 20.676 70.1216 21.282 70.1216 21.942V22.734H63.2096C63.2096 23.202 63.2696 23.64 63.3896 24.048C63.5216 24.444 63.7016 24.792 63.9296 25.092C64.1696 25.38 64.4636 25.608 64.8116 25.776C65.1596 25.944 65.5616 26.028 66.0176 26.028C66.7976 26.028 67.3676 25.884 67.7276 25.596C68.0876 25.296 68.3336 24.894 68.4656 24.39H69.9776ZM68.5556 21.564C68.5556 21.12 68.5076 20.718 68.4116 20.358C68.3156 19.998 68.1656 19.692 67.9616 19.44C67.7576 19.176 67.4936 18.972 67.1696 18.828C66.8456 18.684 66.4556 18.612 65.9996 18.612C65.1716 18.612 64.5236 18.864 64.0556 19.368C63.5996 19.872 63.3296 20.604 63.2456 21.564H68.5556ZM72.1972 17.694H73.7452V19.116C74.2012 18.504 74.7052 18.066 75.2572 17.802C75.8092 17.538 76.3912 17.406 77.0032 17.406C78.0592 17.406 78.8392 17.694 79.3432 18.27C79.8592 18.846 80.1172 19.692 80.1172 20.808V27H78.5512V21.114C78.5512 20.25 78.3952 19.644 78.0832 19.296C77.7712 18.936 77.2912 18.756 76.6432 18.756C76.2952 18.756 75.9472 18.816 75.5992 18.936C75.2632 19.056 74.9572 19.248 74.6812 19.512C74.3812 19.776 74.1532 20.058 73.9972 20.358C73.8412 20.646 73.7632 21.024 73.7632 21.492V27H72.1972V17.694ZM97.2166 22.77C97.1446 23.418 96.9826 24.024 96.7306 24.588C96.4786 25.14 96.1366 25.62 95.7046 26.028C95.2726 26.436 94.7446 26.754 94.1206 26.982C93.5086 27.21 92.7946 27.324 91.9786 27.324C91.0906 27.324 90.2926 27.174 89.5846 26.874C88.8766 26.574 88.2766 26.136 87.7846 25.56C87.2926 24.984 86.9086 24.282 86.6326 23.454C86.3686 22.614 86.2366 21.66 86.2366 20.592C86.2366 19.512 86.3806 18.552 86.6686 17.712C86.9566 16.872 87.3586 16.164 87.8746 15.588C88.3906 15.012 88.9966 14.574 89.6926 14.274C90.4006 13.974 91.1626 13.824 91.9786 13.824C92.7706 13.824 93.4546 13.926 94.0306 14.13C94.6066 14.334 95.0926 14.622 95.4886 14.994C95.8966 15.366 96.2206 15.81 96.4606 16.326C96.7126 16.842 96.9046 17.412 97.0366 18.036L95.4166 18.306C95.3086 17.838 95.1646 17.418 94.9846 17.046C94.8166 16.662 94.5946 16.338 94.3186 16.074C94.0546 15.81 93.7306 15.612 93.3466 15.48C92.9746 15.336 92.5186 15.264 91.9786 15.264C91.3426 15.264 90.7726 15.396 90.2686 15.66C89.7766 15.912 89.3566 16.272 89.0086 16.74C88.6726 17.196 88.4146 17.754 88.2346 18.414C88.0546 19.062 87.9646 19.782 87.9646 20.574C87.9646 21.366 88.0546 22.092 88.2346 22.752C88.4146 23.4 88.6726 23.958 89.0086 24.426C89.3566 24.894 89.7766 25.254 90.2686 25.506C90.7726 25.758 91.3486 25.884 91.9966 25.884C92.5846 25.884 93.0826 25.812 93.4906 25.668C93.9106 25.512 94.2526 25.296 94.5166 25.02C94.7926 24.744 95.0086 24.414 95.1646 24.03C95.3206 23.646 95.4346 23.226 95.5066 22.77H97.2166ZM103.426 27.288C102.718 27.288 102.088 27.174 101.536 26.946C100.984 26.718 100.516 26.394 100.132 25.974C99.7479 25.554 99.4539 25.038 99.2499 24.426C99.0459 23.814 98.9439 23.13 98.9439 22.374C98.9439 21.618 99.0519 20.934 99.2679 20.322C99.4839 19.71 99.7899 19.188 100.186 18.756C100.582 18.324 101.056 17.994 101.608 17.766C102.172 17.526 102.796 17.406 103.48 17.406C104.176 17.406 104.8 17.52 105.352 17.748C105.904 17.976 106.372 18.306 106.756 18.738C107.152 19.158 107.452 19.668 107.656 20.268C107.86 20.868 107.962 21.546 107.962 22.302C107.962 23.07 107.854 23.76 107.638 24.372C107.434 24.984 107.134 25.506 106.738 25.938C106.354 26.37 105.88 26.706 105.316 26.946C104.752 27.174 104.122 27.288 103.426 27.288ZM103.444 25.992C103.948 25.992 104.38 25.902 104.74 25.722C105.1 25.542 105.394 25.29 105.622 24.966C105.862 24.642 106.036 24.258 106.144 23.814C106.252 23.358 106.306 22.86 106.306 22.32C106.306 21.792 106.252 21.306 106.144 20.862C106.036 20.418 105.862 20.04 105.622 19.728C105.394 19.404 105.1 19.152 104.74 18.972C104.38 18.792 103.948 18.702 103.444 18.702C102.94 18.702 102.508 18.792 102.148 18.972C101.8 19.152 101.506 19.404 101.266 19.728C101.038 20.04 100.87 20.418 100.762 20.862C100.654 21.306 100.6 21.798 100.6 22.338C100.6 22.878 100.654 23.37 100.762 23.814C100.87 24.258 101.038 24.642 101.266 24.966C101.494 25.29 101.788 25.542 102.148 25.722C102.508 25.902 102.94 25.992 103.444 25.992ZM110.06 17.694H111.608V19.134C111.956 18.618 112.364 18.222 112.832 17.946C113.3 17.67 113.798 17.532 114.326 17.532C114.65 17.532 114.926 17.556 115.154 17.604L114.956 19.062C114.836 19.038 114.716 19.02 114.596 19.008C114.476 18.984 114.344 18.972 114.2 18.972C113.912 18.972 113.618 19.026 113.318 19.134C113.018 19.23 112.736 19.398 112.472 19.638C112.208 19.866 111.998 20.13 111.842 20.43C111.698 20.73 111.626 21.078 111.626 21.474V27H110.06V17.694ZM124.153 24.39C123.997 25.29 123.595 25.998 122.947 26.514C122.311 27.03 121.393 27.288 120.193 27.288C118.777 27.288 117.691 26.862 116.935 26.01C116.179 25.146 115.801 23.946 115.801 22.41C115.801 21.606 115.909 20.892 116.125 20.268C116.341 19.644 116.641 19.122 117.025 18.702C117.421 18.282 117.889 17.964 118.429 17.748C118.969 17.52 119.557 17.406 120.193 17.406C120.913 17.406 121.531 17.52 122.047 17.748C122.563 17.976 122.983 18.294 123.307 18.702C123.643 19.098 123.889 19.572 124.045 20.124C124.213 20.676 124.297 21.282 124.297 21.942V22.734H117.385C117.385 23.202 117.445 23.64 117.565 24.048C117.697 24.444 117.877 24.792 118.105 25.092C118.345 25.38 118.639 25.608 118.987 25.776C119.335 25.944 119.737 26.028 120.193 26.028C120.973 26.028 121.543 25.884 121.903 25.596C122.263 25.296 122.509 24.894 122.641 24.39H124.153ZM122.731 21.564C122.731 21.12 122.683 20.718 122.587 20.358C122.491 19.998 122.341 19.692 122.137 19.44C121.933 19.176 121.669 18.972 121.345 18.828C121.021 18.684 120.631 18.612 120.175 18.612C119.347 18.612 118.699 18.864 118.231 19.368C117.775 19.872 117.505 20.604 117.421 21.564H122.731ZM141.127 22.77C141.055 23.418 140.893 24.024 140.641 24.588C140.389 25.14 140.047 25.62 139.615 26.028C139.183 26.436 138.655 26.754 138.031 26.982C137.419 27.21 136.705 27.324 135.889 27.324C135.001 27.324 134.203 27.174 133.495 26.874C132.787 26.574 132.187 26.136 131.695 25.56C131.203 24.984 130.819 24.282 130.543 23.454C130.279 22.614 130.147 21.66 130.147 20.592C130.147 19.512 130.291 18.552 130.579 17.712C130.867 16.872 131.269 16.164 131.785 15.588C132.301 15.012 132.907 14.574 133.603 14.274C134.311 13.974 135.073 13.824 135.889 13.824C136.681 13.824 137.365 13.926 137.941 14.13C138.517 14.334 139.003 14.622 139.399 14.994C139.807 15.366 140.131 15.81 140.371 16.326C140.623 16.842 140.815 17.412 140.947 18.036L139.327 18.306C139.219 17.838 139.075 17.418 138.895 17.046C138.727 16.662 138.505 16.338 138.229 16.074C137.965 15.81 137.641 15.612 137.257 15.48C136.885 15.336 136.429 15.264 135.889 15.264C135.253 15.264 134.683 15.396 134.179 15.66C133.687 15.912 133.267 16.272 132.919 16.74C132.583 17.196 132.325 17.754 132.145 18.414C131.965 19.062 131.875 19.782 131.875 20.574C131.875 21.366 131.965 22.092 132.145 22.752C132.325 23.4 132.583 23.958 132.919 24.426C133.267 24.894 133.687 25.254 134.179 25.506C134.683 25.758 135.259 25.884 135.907 25.884C136.495 25.884 136.993 25.812 137.401 25.668C137.821 25.512 138.163 25.296 138.427 25.02C138.703 24.744 138.919 24.414 139.075 24.03C139.231 23.646 139.345 23.226 139.417 22.77H141.127ZM147.336 27.288C146.628 27.288 145.998 27.174 145.446 26.946C144.894 26.718 144.426 26.394 144.042 25.974C143.658 25.554 143.364 25.038 143.16 24.426C142.956 23.814 142.854 23.13 142.854 22.374C142.854 21.618 142.962 20.934 143.178 20.322C143.394 19.71 143.7 19.188 144.096 18.756C144.492 18.324 144.966 17.994 145.518 17.766C146.082 17.526 146.706 17.406 147.39 17.406C148.086 17.406 148.71 17.52 149.262 17.748C149.814 17.976 150.282 18.306 150.666 18.738C151.062 19.158 151.362 19.668 151.566 20.268C151.77 20.868 151.872 21.546 151.872 22.302C151.872 23.07 151.764 23.76 151.548 24.372C151.344 24.984 151.044 25.506 150.648 25.938C150.264 26.37 149.79 26.706 149.226 26.946C148.662 27.174 148.032 27.288 147.336 27.288ZM147.354 25.992C147.858 25.992 148.29 25.902 148.65 25.722C149.01 25.542 149.304 25.29 149.532 24.966C149.772 24.642 149.946 24.258 150.054 23.814C150.162 23.358 150.216 22.86 150.216 22.32C150.216 21.792 150.162 21.306 150.054 20.862C149.946 20.418 149.772 20.04 149.532 19.728C149.304 19.404 149.01 19.152 148.65 18.972C148.29 18.792 147.858 18.702 147.354 18.702C146.85 18.702 146.418 18.792 146.058 18.972C145.71 19.152 145.416 19.404 145.176 19.728C144.948 20.04 144.78 20.418 144.672 20.862C144.564 21.306 144.51 21.798 144.51 22.338C144.51 22.878 144.564 23.37 144.672 23.814C144.78 24.258 144.948 24.642 145.176 24.966C145.404 25.29 145.698 25.542 146.058 25.722C146.418 25.902 146.85 25.992 147.354 25.992ZM153.971 17.694H155.519V19.116C155.975 18.504 156.479 18.066 157.031 17.802C157.583 17.538 158.165 17.406 158.777 17.406C159.833 17.406 160.613 17.694 161.117 18.27C161.633 18.846 161.891 19.692 161.891 20.808V27H160.325V21.114C160.325 20.25 160.169 19.644 159.857 19.296C159.545 18.936 159.065 18.756 158.417 18.756C158.069 18.756 157.721 18.816 157.373 18.936C157.037 19.056 156.731 19.248 156.455 19.512C156.155 19.776 155.927 20.058 155.771 20.358C155.615 20.646 155.537 21.024 155.537 21.492V27H153.971V17.694ZM164.776 18.936H163.336V17.694H164.776V15.156H166.342V17.694H168.808V18.936H166.342V24.39C166.342 24.846 166.444 25.212 166.648 25.488C166.852 25.764 167.164 25.902 167.584 25.902C167.848 25.902 168.076 25.884 168.268 25.848C168.472 25.812 168.658 25.764 168.826 25.704L169.096 26.91C168.856 26.994 168.592 27.06 168.304 27.108C168.028 27.168 167.698 27.198 167.314 27.198C166.786 27.198 166.36 27.12 166.036 26.964C165.712 26.808 165.454 26.586 165.262 26.298C165.07 26.01 164.938 25.668 164.866 25.272C164.806 24.876 164.776 24.444 164.776 23.976V18.936ZM178.259 24.39C178.103 25.29 177.701 25.998 177.053 26.514C176.417 27.03 175.499 27.288 174.299 27.288C172.883 27.288 171.797 26.862 171.041 26.01C170.285 25.146 169.907 23.946 169.907 22.41C169.907 21.606 170.015 20.892 170.231 20.268C170.447 19.644 170.747 19.122 171.131 18.702C171.527 18.282 171.995 17.964 172.535 17.748C173.075 17.52 173.663 17.406 174.299 17.406C175.019 17.406 175.637 17.52 176.153 17.748C176.669 17.976 177.089 18.294 177.413 18.702C177.749 19.098 177.995 19.572 178.151 20.124C178.319 20.676 178.403 21.282 178.403 21.942V22.734H171.491C171.491 23.202 171.551 23.64 171.671 24.048C171.803 24.444 171.983 24.792 172.211 25.092C172.451 25.38 172.745 25.608 173.093 25.776C173.441 25.944 173.843 26.028 174.299 26.028C175.079 26.028 175.649 25.884 176.009 25.596C176.369 25.296 176.615 24.894 176.747 24.39H178.259ZM176.837 21.564C176.837 21.12 176.789 20.718 176.693 20.358C176.597 19.998 176.447 19.692 176.243 19.44C176.039 19.176 175.775 18.972 175.451 18.828C175.127 18.684 174.737 18.612 174.281 18.612C173.453 18.612 172.805 18.864 172.337 19.368C171.881 19.872 171.611 20.604 171.527 21.564H176.837ZM180.478 17.694H182.026V19.116C182.482 18.504 182.986 18.066 183.538 17.802C184.09 17.538 184.672 17.406 185.284 17.406C186.34 17.406 187.12 17.694 187.624 18.27C188.14 18.846 188.398 19.692 188.398 20.808V27H186.832V21.114C186.832 20.25 186.676 19.644 186.364 19.296C186.052 18.936 185.572 18.756 184.924 18.756C184.576 18.756 184.228 18.816 183.88 18.936C183.544 19.056 183.238 19.248 182.962 19.512C182.662 19.776 182.434 20.058 182.278 20.358C182.122 20.646 182.044 21.024 182.044 21.492V27H180.478V17.694ZM191.284 18.936H189.844V17.694H191.284V15.156H192.85V17.694H195.316V18.936H192.85V24.39C192.85 24.846 192.952 25.212 193.156 25.488C193.36 25.764 193.672 25.902 194.092 25.902C194.356 25.902 194.584 25.884 194.776 25.848C194.98 25.812 195.166 25.764 195.334 25.704L195.604 26.91C195.364 26.994 195.1 27.06 194.812 27.108C194.536 27.168 194.206 27.198 193.822 27.198C193.294 27.198 192.868 27.12 192.544 26.964C192.22 26.808 191.962 26.586 191.77 26.298C191.578 26.01 191.446 25.668 191.374 25.272C191.314 24.876 191.284 24.444 191.284 23.976V18.936Z" fill="#111B58"/>
<rect x="0.5" y="0.5" width="231" height="39" rx="19.5" stroke="#111B58"/>
</svg>
