<svg width="220" height="220" viewBox="0 0 220 220" fill="none" xmlns="http://www.w3.org/2000/svg">
<path d="M168.985 120.032C188.323 120.032 204 104.312 204 84.9201C204 65.5286 188.323 49.8086 168.985 49.8086C149.647 49.8086 133.971 65.5286 133.971 84.9201C133.971 104.312 149.647 120.032 168.985 120.032Z" fill="#EBF1F2"/>
<path d="M56.2689 176.196C67.3205 176.196 76.2795 167.212 76.2795 156.13C76.2795 145.048 67.3205 136.064 56.2689 136.064C45.2174 136.064 36.2583 145.048 36.2583 156.13C36.2583 167.212 45.2174 176.196 56.2689 176.196Z" fill="#D7E2E5"/>
<path d="M36.156 148.424C31.3054 148.424 27.3589 144.38 27.3589 139.41C27.3589 134.44 31.3054 130.396 36.156 130.396C41.007 130.396 44.9535 134.44 44.9535 139.41C44.9535 144.38 41.007 148.424 36.156 148.424ZM36.156 132.305C32.3551 132.305 29.2631 135.492 29.2631 139.41C29.2631 143.327 32.3551 146.514 36.156 146.514C39.9568 146.514 43.0493 143.327 43.0493 139.41C43.0493 135.492 39.9568 132.305 36.156 132.305Z" fill="#9BAFBA"/>
<path d="M36.1565 160.115C36.9173 160.115 37.5338 159.481 37.5338 158.7C37.5338 157.919 36.9173 157.286 36.1565 157.286C35.3958 157.286 34.7793 157.919 34.7793 158.7C34.7793 159.481 35.3958 160.115 36.1565 160.115Z" fill="#9BAFBA"/>
<path d="M50.4501 154.064C50.9881 153.512 50.9881 152.616 50.4501 152.063C49.9122 151.511 49.0405 151.511 48.5026 152.063C47.9646 152.615 47.9646 153.511 48.5026 154.064C49.0405 154.616 49.9122 154.616 50.4501 154.064Z" fill="#9BAFBA"/>
<path d="M54.9349 140.824C55.6956 140.824 56.3121 140.191 56.3121 139.41C56.3121 138.629 55.6956 137.995 54.9349 137.995C54.1741 137.995 53.5576 138.629 53.5576 139.41C53.5576 140.191 54.1746 140.824 54.9349 140.824Z" fill="#9BAFBA"/>
<path d="M50.4321 126.765C50.97 126.213 50.97 125.317 50.4321 124.764C49.8941 124.212 49.0225 124.212 48.4845 124.764C47.9466 125.317 47.9466 126.212 48.4845 126.765C49.0225 127.317 49.8946 127.317 50.4321 126.765Z" fill="#9BAFBA"/>
<path d="M36.1565 121.534C36.9173 121.534 37.5338 120.901 37.5338 120.12C37.5338 119.338 36.9173 118.705 36.1565 118.705C35.3958 118.705 34.7793 119.339 34.7793 120.12C34.7793 120.901 35.3958 121.534 36.1565 121.534Z" fill="#9BAFBA"/>
<path d="M23.8574 126.783C24.3953 126.231 24.3953 125.335 23.8574 124.782C23.3194 124.23 22.4478 124.23 21.9098 124.782C21.3719 125.335 21.3719 126.23 21.9098 126.783C22.4478 127.335 23.3194 127.335 23.8574 126.783Z" fill="#9BAFBA"/>
<path d="M17.3772 140.824C18.138 140.824 18.7545 140.191 18.7545 139.41C18.7545 138.629 18.138 137.995 17.3772 137.995C16.6165 137.995 16 138.629 16 139.41C16 140.191 16.6165 140.824 17.3772 140.824Z" fill="#9BAFBA"/>
<path d="M23.8754 154.082C24.4134 153.53 24.4134 152.634 23.8754 152.081C23.3375 151.529 22.4658 151.529 21.9279 152.081C21.3899 152.634 21.3899 153.529 21.9279 154.082C22.4658 154.635 23.3375 154.635 23.8754 154.082Z" fill="#9BAFBA"/>
<path d="M157.337 75.814H129.976C129.45 75.814 129.023 75.3863 129.023 74.8593V45.7345C129.023 45.2075 129.45 44.7798 129.976 44.7798C130.501 44.7798 130.928 45.2075 130.928 45.7345V73.9045H157.337C157.862 73.9045 158.289 74.3322 158.289 74.8593C158.289 75.3863 157.862 75.814 157.337 75.814Z" fill="#666666"/>
<path d="M192.384 67.4691C188.451 67.4691 185.25 64.273 185.25 60.3444C185.25 56.4158 188.451 53.2197 192.384 53.2197C196.318 53.2197 199.518 56.4158 199.518 60.3444C199.518 64.273 196.318 67.4691 192.384 67.4691ZM192.384 54.8104C189.329 54.8104 186.843 57.2931 186.843 60.3444C186.843 63.3958 189.329 65.8784 192.384 65.8784C195.44 65.8784 197.926 63.3958 197.926 60.3444C197.926 57.2931 195.44 54.8104 192.384 54.8104Z" fill="#CACACA"/>
<path d="M113.711 61.9095H110.404V60H113.711V61.9095ZM104.69 61.9095H98.9777V60H104.69V61.9095ZM93.265 61.9095H87.5523V60H93.265V61.9095ZM81.8396 61.9095H76.1269V60H81.8396V61.9095ZM70.4142 61.9095H64.7016V60H70.4142V61.9095ZM58.9889 61.9095H53.2762V60H58.9889V61.9095ZM47.5635 61.9095H41.8508V60H47.5635V61.9095ZM36.1381 61.9095H30.4254V60H36.1381V61.9095ZM24.7127 61.9095H19V60H24.7127V61.9095Z" fill="#A8A8A8"/>
<path d="M158.245 164.208H66.523L65.5709 163.253V129.517C65.5709 128.99 65.9974 128.562 66.523 128.562C67.0486 128.562 67.4751 128.99 67.4751 129.517V162.298H157.292L157.226 74.8185L129.9 45.91H67.4727L67.3066 111.162C67.3052 111.689 66.8796 112.114 66.3545 112.114C66.3535 112.114 66.353 112.114 66.3521 112.114C65.8265 112.113 65.4009 111.685 65.4023 111.157L65.5709 44.9524L66.523 44H130.309L131 44.2979L158.869 73.7802L159.13 74.4361L159.197 163.251L158.245 164.208Z" fill="#666666"/>
<path d="M99.1196 99.0476C98.8863 99.0476 98.667 98.9568 98.5019 98.7916L95.1879 95.4777L91.874 98.7916C91.7097 98.9568 91.49 99.0476 91.2563 99.0476C91.0226 99.0476 90.8028 98.9568 90.6381 98.7912C90.4734 98.6269 90.3826 98.4072 90.3826 98.1739C90.3826 97.9406 90.4734 97.7209 90.639 97.5558L93.9525 94.2423L90.6386 90.9283C90.2978 90.5876 90.2978 90.0336 90.6386 89.6929C90.8037 89.5278 91.023 89.4369 91.2563 89.4369C91.4895 89.4369 91.7088 89.5278 91.874 89.6929L95.1879 93.0068L98.5019 89.6929C98.6666 89.5278 98.8863 89.4369 99.1196 89.4369C99.3529 89.4369 99.5726 89.5278 99.7377 89.6933C100.078 90.0336 100.078 90.588 99.7377 90.9283L96.4233 94.2423L99.7373 97.5562C99.9024 97.7213 99.9933 97.9406 99.9933 98.1739C99.9933 98.4072 99.9024 98.6265 99.7373 98.7916C99.5722 98.9568 99.3529 99.0476 99.1196 99.0476Z" fill="#666666"/>
<path d="M129.408 99.0476C129.175 99.0476 128.956 98.9568 128.79 98.7916L125.477 95.4777L122.163 98.7916C121.998 98.9568 121.779 99.0476 121.545 99.0476C121.311 99.0476 121.091 98.9568 120.927 98.7912C120.762 98.6269 120.671 98.4072 120.671 98.1739C120.671 97.9406 120.762 97.7209 120.928 97.5558L124.241 94.2423L120.927 90.9283C120.586 90.5876 120.586 90.0336 120.927 89.6929C121.092 89.5278 121.312 89.4369 121.545 89.4369C121.778 89.4369 121.997 89.5278 122.163 89.6929L125.477 93.0068L128.79 89.6929C128.955 89.5278 129.175 89.4369 129.408 89.4369C129.641 89.4369 129.861 89.5278 130.026 89.6933C130.366 90.0336 130.366 90.588 130.026 90.9283L126.712 94.2423L130.026 97.5562C130.191 97.7213 130.282 97.9406 130.282 98.1739C130.282 98.4072 130.191 98.6265 130.026 98.7916C129.861 98.9568 129.641 99.0476 129.408 99.0476Z" fill="#666666"/>
<path d="M169.988 115C172.738 115 174.975 117.258 174.975 120.033C174.975 122.809 172.738 125.067 169.988 125.067C167.238 125.067 165 122.809 165 120.033C165 117.258 167.238 115 169.988 115ZM169.988 123.943C172.124 123.943 173.862 122.189 173.862 120.033C173.862 117.878 172.124 116.124 169.988 116.124C167.852 116.124 166.114 117.878 166.114 120.033C166.114 122.189 167.852 123.943 169.988 123.943Z" fill="#CACACA"/>
<path opacity="0.93" d="M184.767 123.899C183.716 123.899 182.858 124.726 182.858 125.788C182.858 126.85 183.716 127.676 184.767 127.676C185.819 127.676 186.677 126.85 186.677 125.788C186.677 124.726 185.78 123.899 184.767 123.899Z" fill="#E1E8F6" fill-opacity="0.7"/>
<path opacity="0.5" fill-rule="evenodd" clip-rule="evenodd" d="M180.495 132.378C180.118 132.168 179.981 131.69 180.189 131.309L180.812 130.168C181.02 129.788 181.494 129.649 181.871 129.859C182.248 130.069 182.385 130.548 182.177 130.928L181.553 132.069C181.346 132.45 180.872 132.588 180.495 132.378Z" fill="#E1E8F6"/>
<path opacity="0.5" fill-rule="evenodd" clip-rule="evenodd" d="M176.981 126.709C176.929 126.277 177.233 125.885 177.661 125.833L178.946 125.676C179.374 125.623 179.762 125.931 179.814 126.362C179.865 126.793 179.561 127.186 179.134 127.238L177.848 127.395C177.421 127.447 177.033 127.14 176.981 126.709Z" fill="#E1E8F6"/>
<path opacity="0.5" fill-rule="evenodd" clip-rule="evenodd" d="M181.113 122.326C180.79 122.613 180.298 122.582 180.014 122.255L179.156 121.272C178.872 120.946 178.904 120.448 179.227 120.161C179.55 119.874 180.042 119.906 180.326 120.232L181.183 121.216C181.468 121.542 181.436 122.039 181.113 122.326Z" fill="#E1E8F6"/>
<path opacity="0.5" fill-rule="evenodd" clip-rule="evenodd" d="M185.359 121.063C184.93 121.024 184.615 120.641 184.654 120.208L184.77 118.91C184.809 118.477 185.188 118.158 185.617 118.198C186.046 118.237 186.361 118.62 186.322 119.052L186.206 120.351C186.167 120.784 185.788 121.102 185.359 121.063Z" fill="#E1E8F6"/>
<path opacity="0.5" fill-rule="evenodd" clip-rule="evenodd" d="M189.049 123.127C188.826 122.756 188.943 122.272 189.311 122.047L190.402 121.378C190.77 121.152 191.249 121.27 191.472 121.642C191.696 122.013 191.578 122.497 191.211 122.723L190.12 123.392C189.752 123.617 189.273 123.499 189.049 123.127Z" fill="#E1E8F6"/>
<path opacity="0.5" fill-rule="evenodd" clip-rule="evenodd" d="M191.937 128.272C191.805 128.686 191.366 128.913 190.956 128.779L189.749 128.386C189.339 128.252 189.114 127.809 189.246 127.395C189.378 126.982 189.818 126.755 190.227 126.888L191.435 127.282C191.844 127.415 192.069 127.858 191.937 128.272Z" fill="#E1E8F6"/>
<path opacity="0.5" fill-rule="evenodd" clip-rule="evenodd" d="M187.308 133.013C186.907 133.17 186.455 132.969 186.3 132.564L185.833 131.344C185.677 130.939 185.877 130.483 186.278 130.326C186.679 130.169 187.131 130.371 187.286 130.776L187.753 131.996C187.909 132.401 187.709 132.857 187.308 133.013Z" fill="#E1E8F6"/>
<path d="M97.5181 119.871V113.464H123.147V119.871" stroke="#666666" stroke-width="1.8" stroke-linecap="round" stroke-linejoin="round"/>
</svg>
